<mxfile host="app.diagrams.net" agent="Mozilla/5.0 (Windows NT 10.0; Win64; x64) AppleWebKit/537.36 (KHTML, like Gecko) Chrome/129.0.0.0 Safari/537.36" version="24.7.16">
  <diagram name="Page-1" id="2a216829-ef6e-dabb-86c1-c78162f3ba2b">
    <mxGraphModel dx="5653" dy="2345" grid="0" gridSize="10" guides="1" tooltips="1" connect="1" arrows="1" fold="1" page="0" pageScale="1" pageWidth="1700" pageHeight="1100" background="none" math="0" shadow="0">
      <root>
        <mxCell id="0" />
        <mxCell id="1" parent="0" />
        <mxCell id="J4ily3QVgM8Bx0OODFb6-4" style="rounded=0;orthogonalLoop=1;jettySize=auto;html=1;edgeStyle=orthogonalEdgeStyle;shadow=0;" edge="1" parent="1" source="6mY-TUvvnxqjN22mH6Ln-44" target="6mY-TUvvnxqjN22mH6Ln-42">
          <mxGeometry relative="1" as="geometry" />
        </mxCell>
        <mxCell id="6mY-TUvvnxqjN22mH6Ln-92" value="" style="rounded=0;whiteSpace=wrap;html=1;shadow=0;align=center;verticalAlign=middle;fontFamily=Helvetica;fontSize=12;fillStyle=hatch;glass=0;strokeWidth=2;" parent="1" vertex="1">
          <mxGeometry x="-1571" y="270" width="1634" height="420" as="geometry" />
        </mxCell>
        <mxCell id="6mY-TUvvnxqjN22mH6Ln-2" value="" style="html=1;overflow=block;blockSpacing=1;whiteSpace=wrap;container=1;pointerEvents=0;collapsible=0;recursiveResize=0;fontSize=13;spacing=0;strokeColor=#282c33;strokeOpacity=100;fillOpacity=0;rounded=1;absoluteArcSize=1;arcSize=9;fillColor=#000000;strokeWidth=2.3;lucidId=QV5Ekp6OenV-;" parent="1" vertex="1">
          <mxGeometry x="-1571" y="-540" width="1635" height="505" as="geometry" />
        </mxCell>
        <mxCell id="6mY-TUvvnxqjN22mH6Ln-42" value="создать или редактировать заголовок" style="html=1;overflow=block;blockSpacing=1;whiteSpace=wrap;fontSize=19.5;spacing=3.8;rounded=1;absoluteArcSize=1;arcSize=9;strokeWidth=2.3;" parent="6mY-TUvvnxqjN22mH6Ln-2" vertex="1">
          <mxGeometry x="1180" y="65" width="180" height="89" as="geometry" />
        </mxCell>
        <mxCell id="6mY-TUvvnxqjN22mH6Ln-53" value="уведомить администратора " style="html=1;overflow=block;blockSpacing=1;whiteSpace=wrap;shape=mxgraph.bpmn.shape;verticalLabelPosition=bottom;verticalAlign=top;outline=end;symbol=message;fontSize=13;spacing=0;strokeColor=#333333;strokeOpacity=100;fillOpacity=100;rounded=1;absoluteArcSize=1;arcSize=12;fillColor=#ffffff;strokeWidth=1.5;" parent="6mY-TUvvnxqjN22mH6Ln-2" vertex="1">
          <mxGeometry x="1247.5" y="279" width="45" height="45" as="geometry" />
        </mxCell>
        <mxCell id="6mY-TUvvnxqjN22mH6Ln-57" value="" style="html=1;jettySize=18;whiteSpace=wrap;fontSize=13;strokeOpacity=100;strokeWidth=0.8;rounded=1;arcSize=24;edgeStyle=orthogonalEdgeStyle;startArrow=none;endArrow=block;endFill=1;exitX=0.5;exitY=1.013;exitPerimeter=0;entryX=0.5;entryY=-0.05;entryPerimeter=0;lucidId=Q~5Ee_BUzl7h;" parent="6mY-TUvvnxqjN22mH6Ln-2" source="6mY-TUvvnxqjN22mH6Ln-42" target="6mY-TUvvnxqjN22mH6Ln-53" edge="1">
          <mxGeometry width="100" height="100" relative="1" as="geometry">
            <Array as="points" />
          </mxGeometry>
        </mxCell>
        <mxCell id="6mY-TUvvnxqjN22mH6Ln-3" value="" style="html=1;overflow=block;blockSpacing=1;whiteSpace=wrap;container=1;pointerEvents=0;collapsible=0;recursiveResize=0;fontSize=13;spacing=0;strokeColor=#282c33;strokeOpacity=100;fillOpacity=0;rounded=1;absoluteArcSize=1;arcSize=9;fillColor=#000000;strokeWidth=2.3;lucidId=QV5EuIR7nP4Y;" parent="1" vertex="1">
          <mxGeometry x="-1571" y="-34" width="1635" height="304" as="geometry" />
        </mxCell>
        <mxCell id="6mY-TUvvnxqjN22mH6Ln-99" value="Одобрено?" style="points=[[0.25,0.25,0],[0.5,0,0],[0.75,0.25,0],[1,0.5,0],[0.75,0.75,0],[0.5,1,0],[0.25,0.75,0],[0,0.5,0]];shape=mxgraph.bpmn.gateway2;html=1;verticalLabelPosition=bottom;labelBackgroundColor=#ffffff;verticalAlign=top;align=center;perimeter=rhombusPerimeter;outlineConnect=0;outline=none;symbol=none;gwType=exclusive;rounded=0;shadow=0;strokeColor=default;fontFamily=Helvetica;fontSize=12;fontColor=default;fillColor=default;" parent="6mY-TUvvnxqjN22mH6Ln-3" vertex="1">
          <mxGeometry x="1260" y="103" width="50" height="50" as="geometry" />
        </mxCell>
        <mxCell id="6mY-TUvvnxqjN22mH6Ln-102" value="размещение заголовок и сообщения почты" style="points=[[0.145,0.145,0],[0.5,0,0],[0.855,0.145,0],[1,0.5,0],[0.855,0.855,0],[0.5,1,0],[0.145,0.855,0],[0,0.5,0]];shape=mxgraph.bpmn.event;html=1;verticalLabelPosition=bottom;labelBackgroundColor=#ffffff;verticalAlign=top;align=center;perimeter=ellipsePerimeter;outlineConnect=0;aspect=fixed;outline=end;symbol=terminate2;rounded=0;shadow=0;strokeColor=default;fontFamily=Helvetica;fontSize=12;fontColor=default;fillColor=default;" parent="6mY-TUvvnxqjN22mH6Ln-3" vertex="1">
          <mxGeometry x="1458" y="103" width="50" height="50" as="geometry" />
        </mxCell>
        <mxCell id="6mY-TUvvnxqjN22mH6Ln-103" style="edgeStyle=orthogonalEdgeStyle;rounded=0;orthogonalLoop=1;jettySize=auto;html=1;entryX=0;entryY=0.5;entryDx=0;entryDy=0;entryPerimeter=0;fontFamily=Helvetica;fontSize=12;fontColor=default;" parent="6mY-TUvvnxqjN22mH6Ln-3" source="6mY-TUvvnxqjN22mH6Ln-99" target="6mY-TUvvnxqjN22mH6Ln-102" edge="1">
          <mxGeometry relative="1" as="geometry" />
        </mxCell>
        <mxCell id="6mY-TUvvnxqjN22mH6Ln-104" value="да" style="edgeLabel;html=1;align=center;verticalAlign=middle;resizable=0;points=[];rounded=0;shadow=0;strokeColor=default;fontFamily=Helvetica;fontSize=12;fontColor=default;fillColor=default;" parent="6mY-TUvvnxqjN22mH6Ln-103" vertex="1" connectable="0">
          <mxGeometry x="-0.2351" relative="1" as="geometry">
            <mxPoint as="offset" />
          </mxGeometry>
        </mxCell>
        <mxCell id="6mY-TUvvnxqjN22mH6Ln-4" value="" style="html=1;overflow=block;blockSpacing=1;whiteSpace=wrap;container=1;pointerEvents=0;collapsible=0;recursiveResize=0;fontSize=13;spacing=0;strokeColor=#282c33;strokeOpacity=100;fillOpacity=0;rounded=1;absoluteArcSize=1;arcSize=9;fillColor=#000000;strokeWidth=2.3;lucidId=QV5EvP9O-3MS;" parent="1" vertex="1">
          <mxGeometry x="374" y="-286" width="1314" height="260" as="geometry" />
        </mxCell>
        <mxCell id="6mY-TUvvnxqjN22mH6Ln-5" value="" style="html=1;overflow=block;blockSpacing=1;whiteSpace=wrap;container=1;pointerEvents=0;collapsible=0;recursiveResize=0;fontSize=13;spacing=0;strokeColor=#282c33;strokeOpacity=100;fillOpacity=0;rounded=1;absoluteArcSize=1;arcSize=9;fillColor=#000000;strokeWidth=2.3;lucidId=QV5EWR2IZ06v;" parent="1" vertex="1">
          <mxGeometry x="374" y="-27" width="1314" height="260" as="geometry" />
        </mxCell>
        <mxCell id="6mY-TUvvnxqjN22mH6Ln-8" value="Server" style="html=1;overflow=block;blockSpacing=1;whiteSpace=wrap;fontSize=16.7;spacing=3.8;rounded=1;absoluteArcSize=1;arcSize=9;strokeWidth=2.3;" parent="1" vertex="1">
          <mxGeometry x="-1631" y="-34" width="60" height="304" as="geometry" />
        </mxCell>
        <mxCell id="6mY-TUvvnxqjN22mH6Ln-9" value="Client" style="html=1;overflow=block;blockSpacing=1;whiteSpace=wrap;fontSize=21.7;spacing=3.8;rounded=1;absoluteArcSize=1;arcSize=9;strokeWidth=2.3;" parent="1" vertex="1">
          <mxGeometry x="-1631" y="-540" width="60" height="505" as="geometry" />
        </mxCell>
        <mxCell id="6mY-TUvvnxqjN22mH6Ln-10" value="Pool" style="html=1;overflow=block;blockSpacing=1;whiteSpace=wrap;fontSize=26.2;spacing=3.8;strokeOpacity=100;rounded=1;absoluteArcSize=1;arcSize=9;strokeWidth=2.3;lucidId=QV5EPXollCph;" parent="1" vertex="1">
          <mxGeometry x="-1631" y="-600" width="1695" height="60" as="geometry" />
        </mxCell>
        <mxCell id="6mY-TUvvnxqjN22mH6Ln-11" value="" style="html=1;overflow=block;blockSpacing=1;whiteSpace=wrap;shape=mxgraph.bpmn.shape;verticalLabelPosition=bottom;verticalAlign=top;outline=standard;fontSize=13;spacing=0;strokeColor=#3a414a;strokeOpacity=100;fillOpacity=100;rounded=1;absoluteArcSize=1;arcSize=9;fillColor=#ffffff;strokeWidth=2.3;" parent="1" vertex="1">
          <mxGeometry x="-1530" y="-390" width="45" height="45" as="geometry" />
        </mxCell>
        <mxCell id="6mY-TUvvnxqjN22mH6Ln-13" value="" style="html=1;jettySize=18;whiteSpace=wrap;fontSize=13;strokeColor=#3a414a;strokeOpacity=100;strokeWidth=2.3;rounded=1;arcSize=48;curved=1;startArrow=none;exitX=1.025;exitY=0.5;exitPerimeter=0;entryX=-0.028;entryY=0.5;entryPerimeter=0;lucidId=QV5EPUKWebZ-;" parent="1" source="6mY-TUvvnxqjN22mH6Ln-11" target="6mY-TUvvnxqjN22mH6Ln-14" edge="1">
          <mxGeometry width="100" height="100" relative="1" as="geometry">
            <Array as="points">
              <mxPoint x="-1296" y="-367" />
              <mxPoint x="-1577" y="-367" />
            </Array>
          </mxGeometry>
        </mxCell>
        <mxCell id="6mY-TUvvnxqjN22mH6Ln-14" value="есть ли логин?" style="html=1;overflow=block;blockSpacing=1;shape=mxgraph.bpmn.shape;perimeter=rhombusPerimeter;background=gateway;verticalLabelPosition=bottom;verticalAlign=top;outline=none;symbol=exclusiveGw;rounded=1;absoluteArcSize=1;arcSize=9;strokeWidth=2.3;whiteSpace=wrap;fontSize=19.5;spacing=0;" parent="1" vertex="1">
          <mxGeometry x="-1388" y="-395" width="56" height="56" as="geometry" />
        </mxCell>
        <mxCell id="6mY-TUvvnxqjN22mH6Ln-15" value="" style="html=1;jettySize=18;whiteSpace=wrap;fontSize=13;strokeColor=#3a414a;strokeOpacity=100;strokeWidth=2.3;rounded=1;arcSize=48;edgeStyle=orthogonalEdgeStyle;startArrow=none;exitX=1.028;exitY=0.5;exitPerimeter=0;entryX=-0.007;entryY=0.597;entryPerimeter=0;lucidId=QV5Eh.KM305P;" parent="1" source="6mY-TUvvnxqjN22mH6Ln-14" target="6mY-TUvvnxqjN22mH6Ln-17" edge="1">
          <mxGeometry width="100" height="100" relative="1" as="geometry">
            <Array as="points" />
          </mxGeometry>
        </mxCell>
        <mxCell id="6mY-TUvvnxqjN22mH6Ln-16" value="нету" style="text;html=1;resizable=0;labelBackgroundColor=default;align=center;verticalAlign=middle;fontStyle=1;fontSize=13.3;" parent="6mY-TUvvnxqjN22mH6Ln-15" vertex="1">
          <mxGeometry x="0.4056472569666245" relative="1" as="geometry" />
        </mxCell>
        <mxCell id="6mY-TUvvnxqjN22mH6Ln-17" value="заполнить форму регистрации и отправить" style="html=1;overflow=block;blockSpacing=1;whiteSpace=wrap;fontSize=19.5;spacing=3.8;rounded=1;absoluteArcSize=1;arcSize=9;strokeWidth=2.3;" parent="1" vertex="1">
          <mxGeometry x="-1235" y="-446" width="168" height="132" as="geometry" />
        </mxCell>
        <mxCell id="6mY-TUvvnxqjN22mH6Ln-18" value="" style="html=1;jettySize=18;whiteSpace=wrap;fontSize=13;strokeColor=#3a414a;strokeOpacity=100;strokeWidth=2.3;rounded=1;arcSize=48;edgeStyle=orthogonalEdgeStyle;startArrow=none;exitX=0.5;exitY=1.028;exitPerimeter=0;entryX=0.5;entryY=1.009;entryPerimeter=0;lucidId=QV5EQjhNx2Kr;" parent="1" source="6mY-TUvvnxqjN22mH6Ln-14" target="6mY-TUvvnxqjN22mH6Ln-44" edge="1">
          <mxGeometry width="100" height="100" relative="1" as="geometry">
            <Array as="points">
              <mxPoint x="-1360" y="-199" />
              <mxPoint x="-876" y="-199" />
            </Array>
          </mxGeometry>
        </mxCell>
        <mxCell id="6mY-TUvvnxqjN22mH6Ln-19" value="есть" style="text;html=1;resizable=0;labelBackgroundColor=default;align=center;verticalAlign=middle;fontStyle=1;fontSize=13.3;" parent="6mY-TUvvnxqjN22mH6Ln-18" vertex="1">
          <mxGeometry x="0.5753730937894568" relative="1" as="geometry" />
        </mxCell>
        <mxCell id="6mY-TUvvnxqjN22mH6Ln-20" value="пользователи" style="html=1;overflow=block;blockSpacing=1;whiteSpace=wrap;shape=datastore;fontSize=19.5;spacing=0;rounded=1;absoluteArcSize=1;arcSize=9;strokeWidth=2.3;lucidId=QV5EPo11eDti;" parent="1" vertex="1">
          <mxGeometry x="-1196" y="-761" width="90" height="68" as="geometry" />
        </mxCell>
        <mxCell id="6mY-TUvvnxqjN22mH6Ln-22" value="Server" style="html=1;overflow=block;blockSpacing=1;whiteSpace=wrap;fontSize=16.7;spacing=3.8;rounded=1;absoluteArcSize=1;arcSize=9;strokeWidth=2.3;" parent="1" vertex="1">
          <mxGeometry x="314" y="-27" width="60" height="260" as="geometry" />
        </mxCell>
        <mxCell id="6mY-TUvvnxqjN22mH6Ln-23" value="Client" style="html=1;overflow=block;blockSpacing=1;whiteSpace=wrap;fontSize=21.7;spacing=3.8;rounded=1;absoluteArcSize=1;arcSize=9;strokeWidth=2.3;" parent="1" vertex="1">
          <mxGeometry x="314" y="-286" width="60" height="260" as="geometry" />
        </mxCell>
        <mxCell id="6mY-TUvvnxqjN22mH6Ln-24" value="Pool" style="html=1;overflow=block;blockSpacing=1;whiteSpace=wrap;fontSize=26.2;spacing=3.8;strokeOpacity=100;rounded=1;absoluteArcSize=1;arcSize=9;strokeWidth=2.3;lucidId=QV5Ej9KpCi3E;" parent="1" vertex="1">
          <mxGeometry x="314" y="-346" width="1374" height="60" as="geometry" />
        </mxCell>
        <mxCell id="6mY-TUvvnxqjN22mH6Ln-25" value="поиск инфо." style="html=1;overflow=block;blockSpacing=1;whiteSpace=wrap;shape=mxgraph.bpmn.shape;verticalLabelPosition=bottom;verticalAlign=top;outline=standard;fontSize=19.5;fontColor=default;spacing=0;strokeColor=#3a414a;strokeOpacity=100;fillOpacity=100;rounded=1;absoluteArcSize=1;arcSize=9;fillColor=#ffffff;strokeWidth=2.3;" parent="1" vertex="1">
          <mxGeometry x="484" y="-179" width="45" height="45" as="geometry" />
        </mxCell>
        <mxCell id="6mY-TUvvnxqjN22mH6Ln-26" value="заголовки" style="html=1;overflow=block;blockSpacing=1;whiteSpace=wrap;shape=datastore;fontSize=19.5;spacing=0;rounded=1;absoluteArcSize=1;arcSize=9;strokeWidth=2.3;lucidId=QV5E5PXf0PxY;" parent="1" vertex="1">
          <mxGeometry x="144" y="106" width="90" height="79" as="geometry" />
        </mxCell>
        <mxCell id="6mY-TUvvnxqjN22mH6Ln-27" value="" style="html=1;jettySize=18;whiteSpace=wrap;fontSize=13;strokeColor=#3a414a;strokeOpacity=100;strokeWidth=2.3;rounded=1;arcSize=48;edgeStyle=orthogonalEdgeStyle;startArrow=none;exitX=1.025;exitY=0.5;exitPerimeter=0;entryX=-0.006;entryY=0.5;entryPerimeter=0;lucidId=QV5EuuIo-aOb;" parent="1" source="6mY-TUvvnxqjN22mH6Ln-25" target="6mY-TUvvnxqjN22mH6Ln-28" edge="1">
          <mxGeometry width="100" height="100" relative="1" as="geometry">
            <Array as="points" />
          </mxGeometry>
        </mxCell>
        <mxCell id="6mY-TUvvnxqjN22mH6Ln-28" value="показать список заголовок по вводному данному" style="html=1;overflow=block;blockSpacing=1;whiteSpace=wrap;fontSize=19.5;spacing=3.8;rounded=1;absoluteArcSize=1;arcSize=9;strokeWidth=2.3;" parent="1" vertex="1">
          <mxGeometry x="608" y="-220" width="180" height="127" as="geometry" />
        </mxCell>
        <mxCell id="6mY-TUvvnxqjN22mH6Ln-29" value="" style="html=1;jettySize=18;whiteSpace=wrap;fontSize=13;strokeColor=#3a414a;strokeOpacity=100;strokeWidth=2.3;rounded=1;arcSize=48;edgeStyle=orthogonalEdgeStyle;startArrow=none;exitX=1.006;exitY=0.5;exitPerimeter=0;entryX=-0.028;entryY=0.5;entryPerimeter=0;lucidId=QV5E6Sdw3S~M;" parent="1" source="6mY-TUvvnxqjN22mH6Ln-28" target="6mY-TUvvnxqjN22mH6Ln-30" edge="1">
          <mxGeometry width="100" height="100" relative="1" as="geometry">
            <Array as="points" />
          </mxGeometry>
        </mxCell>
        <mxCell id="6mY-TUvvnxqjN22mH6Ln-30" value="выбор языков?" style="html=1;overflow=block;blockSpacing=1;shape=mxgraph.bpmn.shape;perimeter=rhombusPerimeter;background=gateway;verticalLabelPosition=bottom;verticalAlign=top;outline=none;symbol=exclusiveGw;rounded=1;absoluteArcSize=1;arcSize=9;strokeWidth=2.3;whiteSpace=wrap;fontSize=19.5;spacing=0;" parent="1" vertex="1">
          <mxGeometry x="878" y="-185" width="56" height="56" as="geometry" />
        </mxCell>
        <mxCell id="6mY-TUvvnxqjN22mH6Ln-31" value="" style="html=1;jettySize=18;whiteSpace=wrap;fontSize=13;strokeColor=#3a414a;strokeOpacity=100;strokeWidth=2.3;rounded=1;arcSize=48;edgeStyle=orthogonalEdgeStyle;startArrow=none;entryX=0.5;entryY=-0.028;entryPerimeter=0;lucidId=QV5EVaDGgSq0;" parent="1" target="6mY-TUvvnxqjN22mH6Ln-33" edge="1">
          <mxGeometry width="100" height="100" relative="1" as="geometry">
            <Array as="points" />
            <mxPoint x="906" y="-70" as="sourcePoint" />
          </mxGeometry>
        </mxCell>
        <mxCell id="6mY-TUvvnxqjN22mH6Ln-32" value="не выбран" style="text;html=1;resizable=0;labelBackgroundColor=default;align=center;verticalAlign=middle;fontStyle=1;fontSize=13.3;" parent="6mY-TUvvnxqjN22mH6Ln-31" vertex="1">
          <mxGeometry relative="1" as="geometry" />
        </mxCell>
        <mxCell id="6mY-TUvvnxqjN22mH6Ln-33" value="" style="html=1;overflow=block;blockSpacing=1;shape=mxgraph.bpmn.shape;perimeter=rhombusPerimeter;background=gateway;verticalLabelPosition=bottom;verticalAlign=top;outline=none;symbol=parallelGw;rounded=1;absoluteArcSize=1;arcSize=9;strokeWidth=2.3;whiteSpace=wrap;fontSize=13;spacing=0;" parent="1" vertex="1">
          <mxGeometry x="878" y="35" width="56" height="56" as="geometry" />
        </mxCell>
        <mxCell id="6mY-TUvvnxqjN22mH6Ln-34" value="" style="html=1;jettySize=18;whiteSpace=wrap;fontSize=13;strokeColor=#3a414a;strokeOpacity=100;strokeWidth=2.3;rounded=1;arcSize=48;edgeStyle=orthogonalEdgeStyle;startArrow=none;exitX=1.028;exitY=0.5;exitPerimeter=0;entryX=-0.009;entryY=0.5;entryPerimeter=0;lucidId=QV5EZs6Yfm4k;" parent="1" source="6mY-TUvvnxqjN22mH6Ln-30" target="6mY-TUvvnxqjN22mH6Ln-36" edge="1">
          <mxGeometry width="100" height="100" relative="1" as="geometry">
            <Array as="points" />
          </mxGeometry>
        </mxCell>
        <mxCell id="6mY-TUvvnxqjN22mH6Ln-35" value="выбран" style="text;html=1;resizable=0;labelBackgroundColor=default;align=center;verticalAlign=middle;fontStyle=1;fontSize=13.3;" parent="6mY-TUvvnxqjN22mH6Ln-34" vertex="1">
          <mxGeometry x="-0.13163443265127794" relative="1" as="geometry" />
        </mxCell>
        <mxCell id="6mY-TUvvnxqjN22mH6Ln-36" value="список языков" style="html=1;overflow=block;blockSpacing=1;whiteSpace=wrap;fontSize=19.5;spacing=3.8;rounded=1;absoluteArcSize=1;arcSize=9;strokeWidth=2.3;" parent="1" vertex="1">
          <mxGeometry x="1088" y="-202" width="120" height="90" as="geometry" />
        </mxCell>
        <mxCell id="6mY-TUvvnxqjN22mH6Ln-37" value="" style="html=1;jettySize=18;whiteSpace=wrap;fontSize=13;strokeColor=#3a414a;strokeOpacity=100;strokeWidth=2.3;rounded=1;arcSize=48;edgeStyle=orthogonalEdgeStyle;startArrow=none;exitX=0.5;exitY=1.028;exitPerimeter=0;entryX=-0.008;entryY=0.344;entryPerimeter=0;lucidId=QV5El8iHifch;" parent="1" source="6mY-TUvvnxqjN22mH6Ln-33" target="6mY-TUvvnxqjN22mH6Ln-38" edge="1">
          <mxGeometry width="100" height="100" relative="1" as="geometry">
            <Array as="points">
              <mxPoint x="906" y="120" />
              <mxPoint x="1240" y="120" />
              <mxPoint x="1240" y="-179" />
            </Array>
          </mxGeometry>
        </mxCell>
        <mxCell id="6mY-TUvvnxqjN22mH6Ln-38" value="показать заголовки по языкам и запросам " style="html=1;overflow=block;blockSpacing=1;whiteSpace=wrap;fontSize=19.5;spacing=3.8;rounded=1;absoluteArcSize=1;arcSize=9;strokeWidth=2.3;" parent="1" vertex="1">
          <mxGeometry x="1278" y="-214" width="137" height="103" as="geometry" />
        </mxCell>
        <mxCell id="6mY-TUvvnxqjN22mH6Ln-39" value="" style="html=1;jettySize=18;whiteSpace=wrap;fontSize=13;strokeColor=#3a414a;strokeOpacity=100;strokeWidth=2.3;rounded=1;arcSize=48;edgeStyle=orthogonalEdgeStyle;startArrow=none;exitX=0.5;exitY=1.012;exitPerimeter=0;entryX=1.028;entryY=0.5;entryPerimeter=0;lucidId=QV5E2vlWdc9O;" parent="1" source="6mY-TUvvnxqjN22mH6Ln-36" target="6mY-TUvvnxqjN22mH6Ln-33" edge="1">
          <mxGeometry width="100" height="100" relative="1" as="geometry">
            <Array as="points">
              <mxPoint x="1148" y="63" />
            </Array>
          </mxGeometry>
        </mxCell>
        <mxCell id="6mY-TUvvnxqjN22mH6Ln-40" value="" style="html=1;jettySize=18;whiteSpace=wrap;fontSize=13;strokeColor=#3a414a;strokeOpacity=100;strokeWidth=2.3;rounded=1;arcSize=48;edgeStyle=orthogonalEdgeStyle;startArrow=none;exitX=1.008;exitY=0.5;exitPerimeter=0;entryX=0;entryY=0.5;entryPerimeter=0;lucidId=QV5EeeEdbnpB;" parent="1" source="6mY-TUvvnxqjN22mH6Ln-38" target="6mY-TUvvnxqjN22mH6Ln-41" edge="1">
          <mxGeometry width="100" height="100" relative="1" as="geometry">
            <Array as="points" />
          </mxGeometry>
        </mxCell>
        <mxCell id="6mY-TUvvnxqjN22mH6Ln-41" value="получить инфо. в заголовке" style="html=1;overflow=block;blockSpacing=1;whiteSpace=wrap;shape=mxgraph.bpmn.shape;verticalLabelPosition=bottom;verticalAlign=top;outline=end;fontSize=19.5;spacing=0;rounded=1;absoluteArcSize=1;arcSize=9;strokeWidth=NaN;" parent="1" vertex="1">
          <mxGeometry x="1540" y="-186" width="45" height="45" as="geometry" />
        </mxCell>
        <mxCell id="6mY-TUvvnxqjN22mH6Ln-43" value="" style="html=1;jettySize=18;whiteSpace=wrap;fontSize=13;strokeColor=#3a414a;strokeOpacity=100;strokeWidth=2.3;rounded=1;arcSize=48;edgeStyle=orthogonalEdgeStyle;startArrow=none;exitX=1.007;exitY=0.5;exitPerimeter=0;entryX=-0.007;entryY=0.5;entryPerimeter=0;lucidId=QV5E-PUeSAQA;" parent="1" source="6mY-TUvvnxqjN22mH6Ln-17" target="6mY-TUvvnxqjN22mH6Ln-44" edge="1">
          <mxGeometry width="100" height="100" relative="1" as="geometry">
            <Array as="points" />
          </mxGeometry>
        </mxCell>
        <mxCell id="6mY-TUvvnxqjN22mH6Ln-44" value="авторизация системы" style="html=1;overflow=block;blockSpacing=1;whiteSpace=wrap;fontSize=19.5;spacing=3.8;rounded=1;absoluteArcSize=1;arcSize=9;strokeWidth=2.3;" parent="1" vertex="1">
          <mxGeometry x="-960" y="-446" width="168" height="132" as="geometry" />
        </mxCell>
        <mxCell id="6mY-TUvvnxqjN22mH6Ln-45" value="" style="html=1;jettySize=18;whiteSpace=wrap;fontSize=13;strokeColor=#3a414a;strokeOpacity=100;dashed=1;fixDash=1;dashPattern=8 8;strokeWidth=2.3;rounded=1;arcSize=48;edgeStyle=orthogonalEdgeStyle;startArrow=none;exitX=1.013;exitY=0.5;exitPerimeter=0;entryX=0.5;entryY=1.011;entryPerimeter=0;lucidId=QV5EQXNkiUal;" parent="1" source="6mY-TUvvnxqjN22mH6Ln-26" target="6mY-TUvvnxqjN22mH6Ln-38" edge="1">
          <mxGeometry width="100" height="100" relative="1" as="geometry">
            <Array as="points" />
          </mxGeometry>
        </mxCell>
        <mxCell id="6mY-TUvvnxqjN22mH6Ln-46" value="" style="html=1;jettySize=18;whiteSpace=wrap;fontSize=13;strokeColor=#3a414a;strokeOpacity=100;dashed=1;fixDash=1;dashPattern=6 5;strokeWidth=2.3;rounded=1;arcSize=48;edgeStyle=orthogonalEdgeStyle;startArrow=none;exitX=0.5;exitY=-0.009;exitPerimeter=0;entryX=0.5;entryY=1.017;entryPerimeter=0;lucidId=QV5ENy2c-PVh;" parent="1" source="6mY-TUvvnxqjN22mH6Ln-17" target="6mY-TUvvnxqjN22mH6Ln-20" edge="1">
          <mxGeometry width="100" height="100" relative="1" as="geometry">
            <Array as="points" />
          </mxGeometry>
        </mxCell>
        <mxCell id="6mY-TUvvnxqjN22mH6Ln-47" value="&lt;font style=&quot;font-size: 23px;&quot;&gt;Admin&lt;/font&gt;" style="html=1;overflow=block;blockSpacing=1;whiteSpace=wrap;fontSize=13;spacing=3.8;rounded=1;absoluteArcSize=1;arcSize=9;strokeWidth=2.3;" parent="1" vertex="1">
          <mxGeometry x="-1631" y="270" width="60" height="420" as="geometry" />
        </mxCell>
        <mxCell id="6mY-TUvvnxqjN22mH6Ln-105" style="edgeStyle=orthogonalEdgeStyle;rounded=0;orthogonalLoop=1;jettySize=auto;html=1;entryX=0.5;entryY=1;entryDx=0;entryDy=0;fontFamily=Helvetica;fontSize=12;fontColor=default;dashed=1;dashPattern=1 1;strokeWidth=3;" parent="1" source="6mY-TUvvnxqjN22mH6Ln-6" target="6mY-TUvvnxqjN22mH6Ln-26" edge="1">
          <mxGeometry relative="1" as="geometry" />
        </mxCell>
        <mxCell id="J4ily3QVgM8Bx0OODFb6-21" style="edgeStyle=orthogonalEdgeStyle;shape=connector;rounded=0;orthogonalLoop=1;jettySize=auto;html=1;exitX=0.5;exitY=1;exitDx=0;exitDy=0;strokeColor=default;align=center;verticalAlign=middle;fontFamily=Helvetica;fontSize=11;fontColor=default;labelBackgroundColor=default;endArrow=classic;dashed=1;strokeWidth=2;entryX=0.5;entryY=0;entryDx=0;entryDy=0;" edge="1" parent="1" source="6mY-TUvvnxqjN22mH6Ln-6" target="J4ily3QVgM8Bx0OODFb6-27">
          <mxGeometry relative="1" as="geometry">
            <mxPoint x="-412" y="876.0004272460938" as="targetPoint" />
          </mxGeometry>
        </mxCell>
        <mxCell id="6mY-TUvvnxqjN22mH6Ln-6" value="" style="html=1;overflow=block;blockSpacing=1;shape=ext;double=1;whiteSpace=wrap;fontSize=13;spacing=3.8;strokeColor=#333333;strokeOpacity=100;fillOpacity=100;rounded=1;absoluteArcSize=1;arcSize=12;fillColor=#ffffff;strokeWidth=0.8;" parent="1" vertex="1">
          <mxGeometry x="-811" y="340" width="797" height="265.75" as="geometry" />
        </mxCell>
        <mxCell id="6mY-TUvvnxqjN22mH6Ln-56" value="" style="html=1;jettySize=18;whiteSpace=wrap;fontSize=13;strokeColor=#333333;strokeOpacity=100;dashed=1;fixDash=1;strokeWidth=3;rounded=1;arcSize=24;edgeStyle=orthogonalEdgeStyle;startArrow=none;endArrow=block;endFill=1;exitX=1.006;exitY=0.5;exitPerimeter=0;entryX=0.5;entryY=-0.014;entryPerimeter=0;lucidId=Y.5E0FJascR8;" parent="1" source="6mY-TUvvnxqjN22mH6Ln-42" target="6mY-TUvvnxqjN22mH6Ln-26" edge="1">
          <mxGeometry width="100" height="100" relative="1" as="geometry">
            <Array as="points" />
          </mxGeometry>
        </mxCell>
        <mxCell id="6mY-TUvvnxqjN22mH6Ln-73" style="edgeStyle=orthogonalEdgeStyle;rounded=0;orthogonalLoop=1;jettySize=auto;html=1;fontFamily=Helvetica;fontSize=12;fontColor=default;" parent="1" source="6mY-TUvvnxqjN22mH6Ln-68" target="6mY-TUvvnxqjN22mH6Ln-69" edge="1">
          <mxGeometry relative="1" as="geometry">
            <mxPoint x="-780" y="373.5" as="targetPoint" />
          </mxGeometry>
        </mxCell>
        <mxCell id="6mY-TUvvnxqjN22mH6Ln-74" value="нет" style="edgeLabel;html=1;align=center;verticalAlign=middle;resizable=0;points=[];rounded=0;shadow=0;strokeColor=default;fontFamily=Helvetica;fontSize=12;fontColor=default;fillColor=default;" parent="6mY-TUvvnxqjN22mH6Ln-73" vertex="1" connectable="0">
          <mxGeometry x="-0.1247" relative="1" as="geometry">
            <mxPoint x="1" as="offset" />
          </mxGeometry>
        </mxCell>
        <mxCell id="6mY-TUvvnxqjN22mH6Ln-76" style="edgeStyle=orthogonalEdgeStyle;rounded=0;orthogonalLoop=1;jettySize=auto;html=1;entryX=0;entryY=0.5;entryDx=0;entryDy=0;fontFamily=Helvetica;fontSize=12;fontColor=default;" parent="1" source="6mY-TUvvnxqjN22mH6Ln-68" target="6mY-TUvvnxqjN22mH6Ln-6" edge="1">
          <mxGeometry relative="1" as="geometry" />
        </mxCell>
        <mxCell id="6mY-TUvvnxqjN22mH6Ln-68" value="заголовок прошел&amp;nbsp;&lt;div&gt;автоматизированную модерацию?&lt;div&gt;&lt;br&gt;&lt;/div&gt;&lt;/div&gt;" style="points=[[0.25,0.25,0],[0.5,0,0],[0.75,0.25,0],[1,0.5,0],[0.75,0.75,0],[0.5,1,0],[0.25,0.75,0],[0,0.5,0]];shape=mxgraph.bpmn.gateway2;html=1;verticalLabelPosition=bottom;labelBackgroundColor=#ffffff;verticalAlign=top;align=center;perimeter=rhombusPerimeter;outlineConnect=0;outline=none;symbol=none;gwType=exclusive;rounded=0;shadow=0;strokeColor=default;fontFamily=Helvetica;fontSize=12;fontColor=default;fillColor=default;" parent="1" vertex="1">
          <mxGeometry x="-940" y="449.37" width="50" height="50" as="geometry" />
        </mxCell>
        <mxCell id="6mY-TUvvnxqjN22mH6Ln-69" value="отказ" style="points=[[0.145,0.145,0],[0.5,0,0],[0.855,0.145,0],[1,0.5,0],[0.855,0.855,0],[0.5,1,0],[0.145,0.855,0],[0,0.5,0]];shape=mxgraph.bpmn.event;html=1;verticalLabelPosition=bottom;labelBackgroundColor=#ffffff;verticalAlign=top;align=center;perimeter=ellipsePerimeter;outlineConnect=0;aspect=fixed;outline=end;symbol=terminate2;rounded=0;shadow=0;strokeColor=default;fontFamily=Helvetica;fontSize=12;fontColor=default;fillColor=default;" parent="1" vertex="1">
          <mxGeometry x="-1081" y="449.37" width="48.5" height="48.5" as="geometry" />
        </mxCell>
        <mxCell id="J4ily3QVgM8Bx0OODFb6-8" style="edgeStyle=orthogonalEdgeStyle;rounded=0;orthogonalLoop=1;jettySize=auto;html=1;entryX=0.5;entryY=0;entryDx=0;entryDy=0;" edge="1" parent="1" source="6mY-TUvvnxqjN22mH6Ln-70" target="J4ily3QVgM8Bx0OODFb6-1">
          <mxGeometry relative="1" as="geometry" />
        </mxCell>
        <mxCell id="6mY-TUvvnxqjN22mH6Ln-70" value="" style="points=[[0.145,0.145,0],[0.5,0,0],[0.855,0.145,0],[1,0.5,0],[0.855,0.855,0],[0.5,1,0],[0.145,0.855,0],[0,0.5,0]];shape=mxgraph.bpmn.event;html=1;verticalLabelPosition=bottom;labelBackgroundColor=#ffffff;verticalAlign=top;align=center;perimeter=ellipsePerimeter;outlineConnect=0;aspect=fixed;outline=standard;symbol=general;rounded=0;shadow=0;strokeColor=default;fontFamily=Helvetica;fontSize=12;fontColor=default;fillColor=default;" parent="1" vertex="1">
          <mxGeometry x="-759" y="363" width="40" height="40" as="geometry" />
        </mxCell>
        <mxCell id="6mY-TUvvnxqjN22mH6Ln-79" value="заголовок&amp;nbsp;&lt;div&gt;удовлетворяет&amp;nbsp;&lt;/div&gt;&lt;div&gt;модерацию?&lt;/div&gt;" style="points=[[0.25,0.25,0],[0.5,0,0],[0.75,0.25,0],[1,0.5,0],[0.75,0.75,0],[0.5,1,0],[0.25,0.75,0],[0,0.5,0]];shape=mxgraph.bpmn.gateway2;html=1;verticalLabelPosition=bottom;labelBackgroundColor=#ffffff;verticalAlign=top;align=center;perimeter=rhombusPerimeter;outlineConnect=0;outline=none;symbol=none;gwType=exclusive;rounded=0;shadow=0;strokeColor=default;fontFamily=Helvetica;fontSize=12;fontColor=default;fillColor=default;" parent="1" vertex="1">
          <mxGeometry x="-637" y="425" width="50" height="50" as="geometry" />
        </mxCell>
        <mxCell id="J4ily3QVgM8Bx0OODFb6-12" style="edgeStyle=orthogonalEdgeStyle;rounded=0;orthogonalLoop=1;jettySize=auto;html=1;" edge="1" parent="1" source="6mY-TUvvnxqjN22mH6Ln-82" target="J4ily3QVgM8Bx0OODFb6-9">
          <mxGeometry relative="1" as="geometry" />
        </mxCell>
        <mxCell id="6mY-TUvvnxqjN22mH6Ln-82" value="изменить статус заголовка на одобрено" style="points=[[0.25,0,0],[0.5,0,0],[0.75,0,0],[1,0.25,0],[1,0.5,0],[1,0.75,0],[0.75,1,0],[0.5,1,0],[0.25,1,0],[0,0.75,0],[0,0.5,0],[0,0.25,0]];shape=mxgraph.bpmn.task;whiteSpace=wrap;rectStyle=rounded;size=10;html=1;container=1;expand=0;collapsible=0;taskMarker=abstract;rounded=0;shadow=0;strokeColor=default;align=center;verticalAlign=middle;fontFamily=Helvetica;fontSize=12;fontColor=default;fillColor=default;" parent="1" vertex="1">
          <mxGeometry x="-520" y="365" width="120" height="80" as="geometry" />
        </mxCell>
        <mxCell id="6mY-TUvvnxqjN22mH6Ln-85" value="уведомить клиента" style="points=[[0.145,0.145,0],[0.5,0,0],[0.855,0.145,0],[1,0.5,0],[0.855,0.855,0],[0.5,1,0],[0.145,0.855,0],[0,0.5,0]];shape=mxgraph.bpmn.event;html=1;verticalLabelPosition=bottom;labelBackgroundColor=#ffffff;verticalAlign=top;align=center;perimeter=ellipsePerimeter;outlineConnect=0;aspect=fixed;outline=throwing;symbol=message;rounded=0;shadow=0;strokeColor=default;fontFamily=Helvetica;fontSize=12;fontColor=default;fillColor=default;" parent="1" vertex="1">
          <mxGeometry x="-130" y="380" width="50" height="50" as="geometry" />
        </mxCell>
        <mxCell id="6mY-TUvvnxqjN22mH6Ln-86" value="уведомить клиента" style="points=[[0.145,0.145,0],[0.5,0,0],[0.855,0.145,0],[1,0.5,0],[0.855,0.855,0],[0.5,1,0],[0.145,0.855,0],[0,0.5,0]];shape=mxgraph.bpmn.event;html=1;verticalLabelPosition=bottom;labelBackgroundColor=#ffffff;verticalAlign=top;align=center;perimeter=ellipsePerimeter;outlineConnect=0;aspect=fixed;outline=throwing;symbol=message;rounded=0;shadow=0;strokeColor=default;fontFamily=Helvetica;fontSize=12;fontColor=default;fillColor=default;" parent="1" vertex="1">
          <mxGeometry x="-130" y="474" width="50" height="50" as="geometry" />
        </mxCell>
        <mxCell id="6mY-TUvvnxqjN22mH6Ln-95" style="edgeStyle=orthogonalEdgeStyle;rounded=0;orthogonalLoop=1;jettySize=auto;html=1;entryX=0;entryY=0.5;entryDx=0;entryDy=0;entryPerimeter=0;fontFamily=Helvetica;fontSize=12;fontColor=default;exitX=0.5;exitY=0;exitDx=0;exitDy=0;exitPerimeter=0;" parent="1" source="6mY-TUvvnxqjN22mH6Ln-79" target="6mY-TUvvnxqjN22mH6Ln-82" edge="1">
          <mxGeometry relative="1" as="geometry" />
        </mxCell>
        <mxCell id="6mY-TUvvnxqjN22mH6Ln-96" value="да" style="edgeLabel;html=1;align=center;verticalAlign=middle;resizable=0;points=[];rounded=0;shadow=0;strokeColor=default;fontFamily=Helvetica;fontSize=12;fontColor=default;fillColor=default;" parent="6mY-TUvvnxqjN22mH6Ln-95" vertex="1" connectable="0">
          <mxGeometry x="0.1069" y="-3" relative="1" as="geometry">
            <mxPoint as="offset" />
          </mxGeometry>
        </mxCell>
        <mxCell id="6mY-TUvvnxqjN22mH6Ln-100" style="edgeStyle=orthogonalEdgeStyle;rounded=0;orthogonalLoop=1;jettySize=auto;html=1;entryX=0.5;entryY=0;entryDx=0;entryDy=0;fontFamily=Helvetica;fontSize=12;fontColor=default;startArrow=classic;startFill=1;endArrow=none;endFill=0;exitX=0.5;exitY=1;exitDx=0;exitDy=0;exitPerimeter=0;" parent="1" target="6mY-TUvvnxqjN22mH6Ln-6" edge="1" source="6mY-TUvvnxqjN22mH6Ln-99">
          <mxGeometry relative="1" as="geometry">
            <mxPoint x="-288" y="180" as="sourcePoint" />
          </mxGeometry>
        </mxCell>
        <mxCell id="J4ily3QVgM8Bx0OODFb6-1" value="админ принять заголовки" style="rounded=1;whiteSpace=wrap;html=1;" vertex="1" parent="1">
          <mxGeometry x="-799" y="459" width="120" height="60" as="geometry" />
        </mxCell>
        <mxCell id="J4ily3QVgM8Bx0OODFb6-3" style="edgeStyle=orthogonalEdgeStyle;rounded=0;orthogonalLoop=1;jettySize=auto;html=1;entryX=0;entryY=0.5;entryDx=0;entryDy=0;entryPerimeter=0;exitX=0.5;exitY=1;exitDx=0;exitDy=0;" edge="1" parent="1" source="J4ily3QVgM8Bx0OODFb6-1" target="6mY-TUvvnxqjN22mH6Ln-79">
          <mxGeometry relative="1" as="geometry" />
        </mxCell>
        <mxCell id="J4ily3QVgM8Bx0OODFb6-9" value="Сохранить инфо в почтовом журнале" style="rounded=1;whiteSpace=wrap;html=1;" vertex="1" parent="1">
          <mxGeometry x="-333" y="375" width="120" height="60" as="geometry" />
        </mxCell>
        <mxCell id="J4ily3QVgM8Bx0OODFb6-16" style="edgeStyle=orthogonalEdgeStyle;rounded=0;orthogonalLoop=1;jettySize=auto;html=1;entryX=0;entryY=0.5;entryDx=0;entryDy=0;" edge="1" parent="1" source="J4ily3QVgM8Bx0OODFb6-10" target="J4ily3QVgM8Bx0OODFb6-15">
          <mxGeometry relative="1" as="geometry" />
        </mxCell>
        <mxCell id="J4ily3QVgM8Bx0OODFb6-10" value="изменить статус заголовка на не одобрено" style="points=[[0.25,0,0],[0.5,0,0],[0.75,0,0],[1,0.25,0],[1,0.5,0],[1,0.75,0],[0.75,1,0],[0.5,1,0],[0.25,1,0],[0,0.75,0],[0,0.5,0],[0,0.25,0]];shape=mxgraph.bpmn.task;whiteSpace=wrap;rectStyle=rounded;size=10;html=1;container=1;expand=0;collapsible=0;taskMarker=abstract;rounded=0;shadow=0;strokeColor=default;align=center;verticalAlign=middle;fontFamily=Helvetica;fontSize=12;fontColor=default;fillColor=default;" vertex="1" parent="1">
          <mxGeometry x="-520" y="459" width="120" height="80" as="geometry" />
        </mxCell>
        <mxCell id="J4ily3QVgM8Bx0OODFb6-13" style="edgeStyle=orthogonalEdgeStyle;rounded=0;orthogonalLoop=1;jettySize=auto;html=1;entryX=0.5;entryY=1;entryDx=0;entryDy=0;entryPerimeter=0;exitX=0.5;exitY=1;exitDx=0;exitDy=0;exitPerimeter=0;" edge="1" parent="1" source="6mY-TUvvnxqjN22mH6Ln-79" target="J4ily3QVgM8Bx0OODFb6-10">
          <mxGeometry relative="1" as="geometry" />
        </mxCell>
        <mxCell id="J4ily3QVgM8Bx0OODFb6-14" value="нет" style="edgeLabel;html=1;align=center;verticalAlign=middle;resizable=0;points=[];" vertex="1" connectable="0" parent="J4ily3QVgM8Bx0OODFb6-13">
          <mxGeometry x="0.2292" y="-3" relative="1" as="geometry">
            <mxPoint as="offset" />
          </mxGeometry>
        </mxCell>
        <mxCell id="J4ily3QVgM8Bx0OODFb6-15" value="Сохранить инфо в почтовом журнале" style="rounded=1;whiteSpace=wrap;html=1;" vertex="1" parent="1">
          <mxGeometry x="-333" y="469" width="120" height="60" as="geometry" />
        </mxCell>
        <mxCell id="J4ily3QVgM8Bx0OODFb6-18" style="edgeStyle=orthogonalEdgeStyle;rounded=0;orthogonalLoop=1;jettySize=auto;html=1;entryX=0;entryY=0.5;entryDx=0;entryDy=0;entryPerimeter=0;" edge="1" parent="1" source="J4ily3QVgM8Bx0OODFb6-9" target="6mY-TUvvnxqjN22mH6Ln-85">
          <mxGeometry relative="1" as="geometry" />
        </mxCell>
        <mxCell id="J4ily3QVgM8Bx0OODFb6-19" style="edgeStyle=orthogonalEdgeStyle;rounded=0;orthogonalLoop=1;jettySize=auto;html=1;entryX=0;entryY=0.5;entryDx=0;entryDy=0;entryPerimeter=0;" edge="1" parent="1" source="J4ily3QVgM8Bx0OODFb6-15" target="6mY-TUvvnxqjN22mH6Ln-86">
          <mxGeometry relative="1" as="geometry" />
        </mxCell>
        <mxCell id="J4ily3QVgM8Bx0OODFb6-27" value="сообщения в почту" style="html=1;overflow=block;blockSpacing=1;whiteSpace=wrap;shape=datastore;fontSize=19.5;spacing=0;rounded=1;absoluteArcSize=1;arcSize=9;strokeWidth=2.3;lucidId=QV5E5PXf0PxY;" vertex="1" parent="1">
          <mxGeometry x="-457.5" y="759" width="90" height="79" as="geometry" />
        </mxCell>
      </root>
    </mxGraphModel>
  </diagram>
</mxfile>
